<svg width="128" height="128" viewBox="0 0 128 128" fill="none" xmlns="http://www.w3.org/2000/svg">
<g clip-path="url(#clip0_1_2)">
<rect width="128" height="128" rx="28" fill="url(#paint0_linear_1_2)"/>
<path d="M39.5 91.5L41.5 37.5H85.5V89L83.5 91.5L49 89L45 91.5H39.5Z" fill="white"/>
<path d="M66.2917 74.6667H52.3333" stroke="#181818" stroke-width="5.58333" stroke-linecap="round" stroke-linejoin="round"/>
<path d="M69.0833 52.3333H52.3333" stroke="#181818" stroke-width="5.58333" stroke-linecap="round" stroke-linejoin="round"/>
<path d="M74.6667 63.5H52.3333" stroke="#181818" stroke-width="5.58333" stroke-linecap="round" stroke-linejoin="round"/>
<path d="M41.1667 38.375C41.1667 37.6346 41.4608 36.9245 41.9843 36.401C42.5079 35.8775 43.2179 35.5833 43.9583 35.5833C44.6496 35.5795 45.3276 35.7732 45.9125 36.1417L48.5171 37.8167C49.1007 38.1896 49.7788 38.3877 50.4713 38.3877C51.1638 38.3877 51.8419 38.1896 52.4255 37.8167L55.0329 36.1417C55.6164 35.7688 56.2945 35.5706 56.987 35.5706C57.6796 35.5706 58.3576 35.7688 58.9412 36.1417L61.5458 37.8167C62.1294 38.1896 62.8075 38.3877 63.5 38.3877C64.1925 38.3877 64.8706 38.1896 65.4542 37.8167L68.0588 36.1417C68.6424 35.7688 69.3204 35.5706 70.013 35.5706C70.7055 35.5706 71.3836 35.7688 71.9671 36.1417L74.5745 37.8167C75.1581 38.1896 75.8362 38.3877 76.5287 38.3877C77.2212 38.3877 77.8993 38.1896 78.4829 37.8167L81.0875 36.1417C81.6724 35.7732 82.3504 35.5795 83.0417 35.5833C83.7821 35.5833 84.4921 35.8775 85.0157 36.401C85.5392 36.9245 85.8333 37.6346 85.8333 38.375V88.625C85.8333 89.3654 85.5392 90.0755 85.0157 90.599C84.4921 91.1225 83.7821 91.4167 83.0417 91.4167C82.3504 91.4205 81.6724 91.2268 81.0875 90.8583L78.4829 89.1833C77.8993 88.8104 77.2212 88.6123 76.5287 88.6123C75.8362 88.6123 75.1581 88.8104 74.5745 89.1833L71.9671 90.8583C71.3836 91.2312 70.7055 91.4294 70.013 91.4294C69.3204 91.4294 68.6424 91.2312 68.0588 90.8583L65.4542 89.1833C64.8706 88.8104 64.1925 88.6123 63.5 88.6123C62.8075 88.6123 62.1294 88.8104 61.5458 89.1833L58.9412 90.8583C58.3576 91.2312 57.6796 91.4294 56.987 91.4294C56.2945 91.4294 55.6164 91.2312 55.0329 90.8583L52.4255 89.1833C51.8419 88.8104 51.1638 88.6123 50.4713 88.6123C49.7788 88.6123 49.1007 88.8104 48.5171 89.1833L45.9125 90.8583C45.3276 91.2268 44.6496 91.4205 43.9583 91.4167C43.2179 91.4167 42.5079 91.1225 41.9843 90.599C41.4608 90.0755 41.1667 89.3654 41.1667 88.625V38.375Z" stroke="#181818" stroke-width="5.58333" stroke-linecap="round" stroke-linejoin="round"/>
</g>
<defs>
<linearGradient id="paint0_linear_1_2" x1="-2.5" y1="-4.5" x2="131.5" y2="131" gradientUnits="userSpaceOnUse">
<stop stop-color="#A7C957"/>
<stop offset="1" stop-color="#6A994E"/>
</linearGradient>
<clipPath id="clip0_1_2">
<rect width="128" height="128" fill="white"/>
</clipPath>
</defs>
</svg>
